HIERARCHY
ROOT Hips
{
	OFFSET -3.958830 18.904000 13.208200
	CHANNELS 6 Xposition Yposition Zposition Zrotation Yrotation Xrotation 
	JOINT LHipJoint
	{
		OFFSET 0.000000 0.000000 0.000000
		CHANNELS 3 Zrotation Yrotation Xrotation
		JOINT LeftUpLeg
		{
			OFFSET 1.800000 -1.400000 0.085000
			CHANNELS 3 Zrotation Yrotation Xrotation
			JOINT LeftLeg
			{
				OFFSET 2.215000 -6.000000 0.000000
				CHANNELS 3 Zrotation Yrotation Xrotation
				JOINT LeftFoot
				{
					OFFSET 2.500000 -6.900000 0.000000
					CHANNELS 3 Zrotation Yrotation Xrotation
					JOINT LeftToeBase
					{
						OFFSET 0.200000 -0.500000 1.950000
						CHANNELS 3 Zrotation Yrotation Xrotation
						End Site
						{
							OFFSET 0.000000 0.000000 0.000000
						}
					}
				}
			}
		}
	}
	JOINT RHipJoint
	{
		OFFSET 0.000000 0.000000 0.000000
		CHANNELS 3 Zrotation Yrotation Xrotation
		JOINT RightUpLeg
		{
			OFFSET -1.800000 -1.400000 0.085000
			CHANNELS 3 Zrotation Yrotation Xrotation
			JOINT RightLeg
			{
				OFFSET -2.215000 -6.000000 0.000000
				CHANNELS 3 Zrotation Yrotation Xrotation
				JOINT RightFoot
				{
					OFFSET -2.500000 -6.900000 0.000000
					CHANNELS 3 Zrotation Yrotation Xrotation
					JOINT RightToeBase
					{
						OFFSET -0.200000 -0.500000 1.950000
						CHANNELS 3 Zrotation Yrotation Xrotation
						End Site
						{
							OFFSET 0.000000 0.000000 0.000000
						}
					}
				}
			}
		}
	}
	JOINT LowerBack
	{
		OFFSET 0.000000 0.000000 0.000000
		CHANNELS 3 Zrotation Yrotation Xrotation
		JOINT Spine
		{
			OFFSET -0.087000 1.940000 -0.288900
			CHANNELS 3 Zrotation Yrotation Xrotation
			JOINT Spine1
			{
				OFFSET 0.000000 1.950000 0.060000
				CHANNELS 3 Zrotation Yrotation Xrotation
				JOINT Neck
				{
					OFFSET 0.000000 0.000000 0.000000
					CHANNELS 3 Zrotation Yrotation Xrotation
					JOINT Neck1
					{
						OFFSET 0.000000 1.600000 0.340000
						CHANNELS 3 Zrotation Yrotation Xrotation
						JOINT Head
						{
							OFFSET 0.000000 1.667000 -0.240000
							CHANNELS 3 Zrotation Yrotation Xrotation
							End Site
							{
								OFFSET 0.000000 0.000000 0.000000
							}
						}
					}
				}
				JOINT LeftShoulder
				{
					OFFSET 0.000000 0.000000 0.000000
					CHANNELS 3 Zrotation Yrotation Xrotation
					JOINT LeftArm
					{
						OFFSET 2.700000 1.550000 -0.730000
						CHANNELS 3 Zrotation Yrotation Xrotation
						JOINT LeftForeArm
						{
							OFFSET 5.450000 0.000000 0.000000
							CHANNELS 3 Zrotation Yrotation Xrotation
							JOINT LeftHand
							{
								OFFSET 3.450000 0.000000 0.000000
								CHANNELS 3 Zrotation Yrotation Xrotation
								JOINT LeftHandIndex1
								{
									OFFSET 0.750000 0.000000 0.000000
									CHANNELS 3 Zrotation Yrotation Xrotation
									End Site
									{
										OFFSET 0.000000 0.000000 0.000000
									}
								}
							}
						}
					}
				}
				JOINT RightShoulder
				{
					OFFSET 0.000000 0.000000 0.000000
					CHANNELS 3 Zrotation Yrotation Xrotation
					JOINT RightArm
					{
						OFFSET -2.700000 1.550000 -0.730000
						CHANNELS 3 Zrotation Yrotation Xrotation
						JOINT RightForeArm
						{
							OFFSET -5.450000 0.000000 0.000000
							CHANNELS 3 Zrotation Yrotation Xrotation
							JOINT RightHand
							{
								OFFSET -3.450000 0.000000 0.000000
								CHANNELS 3 Zrotation Yrotation Xrotation
								JOINT RightHandIndex1
								{
									OFFSET -0.750000 0.000000 0.000000
									CHANNELS 3 Zrotation Yrotation Xrotation
									End Site
									{
										OFFSET 0.000000 0.000000 0.000000
									}
								}
							}
						}
					}
				}
			}
		}
	}
}
MOTION
Frames: 7
Frame Time: 0.016667
0.850450 17.252140 -0.675260 -4.577278 -8.600848 13.010818 -15.461389 12.841438 3.449933 -6.243511 -2.448592 -13.619703 -5.516146 2.551766 0.437042 -0.889990 4.474341 3.826307 0.219340 -0.604610 -0.072080 18.119456 -10.404128 2.714626 -2.621999 0.357897 -5.865406 7.490846 -5.536567 5.112501 -0.863720 -4.476209 2.708440 -0.306360 1.731400 1.777630 -2.849588 -2.120188 -7.334021 2.760112 3.080985 6.487989 2.968664 1.929817 4.695705 2.440991 0.644297 -8.913334 0.515250 5.309284 27.062319 -7.665570 5.030360 -5.028780 -13.910967 -7.812735 2.729393 -7.003521 -1.890250 -0.246251 11.556106 -30.580617 -3.497262 -4.649394 3.130055 0.932010 1.036360 0.164740 0.907830 10.074586 8.248703 5.335624 10.548492 4.610930 -4.220068 -13.869406 27.007960 -1.764276 1.559448 -1.589539 -0.284940 0.318640 0.325430 0.248790 
0.855590 17.252030 -0.677500 -4.703535 -8.988968 13.303503 -15.465064 12.819073 3.466815 -6.296245 -2.502214 -13.774101 -5.555716 2.494180 0.007860 -0.887311 4.458620 3.828731 0.218170 -0.603100 -0.076270 18.118137 -10.401624 2.705206 -2.823745 0.314423 -5.531048 7.552541 -5.585311 5.092389 -0.874495 -4.517855 2.696277 -0.308210 1.728600 1.782910 -2.840128 -2.106520 -7.337824 2.666328 3.216360 6.417975 3.087327 2.028115 4.709180 2.462488 0.668648 -8.980531 0.572057 5.344039 27.018446 -7.731500 5.129360 -5.096420 -13.921869 -7.915326 2.787685 -7.068490 -1.810821 -0.290487 11.848365 -30.638291 -3.575263 -4.649679 3.132692 0.931100 1.037220 0.168590 0.907860 10.058200 8.372185 5.406410 10.545712 4.575000 -4.234980 -14.046264 26.864838 -1.791791 1.559697 -1.590011 -0.279640 0.312930 0.326760 0.250020 
0.861210 17.252120 -0.679360 -4.842642 -9.381578 13.591816 -15.467622 12.796468 3.483115 -6.329905 -2.555302 -13.921587 -5.610282 2.440633 -0.409269 -0.883040 4.443816 3.830798 0.218780 -0.599810 -0.077020 18.117557 -10.401538 2.695299 -3.041608 0.267103 -5.152874 7.618560 -5.642541 5.105965 -0.887620 -4.563313 2.681930 -0.309840 1.723920 1.787420 -2.833343 -2.089291 -7.341231 2.600183 3.348668 6.345310 3.191182 2.127240 4.720502 2.483886 0.688615 -9.037000 0.619962 5.378178 26.998846 -7.791760 5.228340 -5.201920 -13.934952 -7.997494 2.839644 -7.129639 -1.726509 -0.334896 12.144729 -30.685144 -3.652810 -4.648089 3.134718 0.930850 1.036050 0.174100 0.907420 10.042363 8.478079 5.462936 10.541490 4.570194 -4.245971 -14.203995 26.725166 -1.815109 1.561969 -1.589711 -0.273650 0.307640 0.326260 0.251050 
0.867420 17.252270 -0.680870 -4.993953 -9.754996 13.862376 -15.469790 12.777144 3.499889 -6.337580 -2.606638 -14.057177 -5.684710 2.392885 -0.803912 -0.876900 4.430734 3.831593 0.222180 -0.595230 -0.073920 18.116263 -10.402906 2.686566 -3.263132 0.214526 -4.713743 7.671444 -5.705019 5.142813 -0.904226 -4.611612 2.665153 -0.312050 1.715830 1.792210 -2.825843 -2.075622 -7.348870 2.565261 3.468599 6.309414 3.287165 2.222553 4.694394 2.507934 0.691851 -9.092074 0.633968 5.410497 27.034289 -7.830390 5.311750 -5.350990 -13.959341 -8.062353 2.883152 -7.182812 -1.636638 -0.376835 12.425574 -30.724933 -3.725437 -4.643090 3.138294 0.932760 1.031280 0.182050 0.906710 10.031834 8.582392 5.518543 10.521414 4.567713 -4.257526 -14.352846 26.582780 -1.832012 1.566330 -1.589172 -0.266020 0.301190 0.324090 0.251370 
0.874000 17.252430 -0.681880 -5.145423 -10.109054 14.118011 -15.471115 12.759023 3.516413 -6.344919 -2.656996 -14.184152 -5.744241 2.346430 -1.175147 -0.870209 4.416246 3.831975 0.225100 -0.590590 -0.071110 18.115161 -10.405687 2.679481 -3.502903 0.156062 -4.211010 7.720565 -5.772237 5.173605 -0.922097 -4.664988 2.647274 -0.314600 1.706370 1.795770 -2.819860 -2.062038 -7.359243 2.558952 3.575395 6.289254 3.350824 2.314817 4.644721 2.535636 0.685750 -9.144970 0.628032 5.443981 27.119414 -7.854540 5.387200 -5.508770 -13.987906 -8.113049 2.918470 -7.209684 -1.540937 -0.413159 12.658744 -30.756948 -3.782296 -4.637110 3.141343 0.934890 1.025230 0.190450 0.905180 10.015855 8.678290 5.572984 10.519612 4.576087 -4.266047 -14.487438 26.426486 -1.842975 1.571855 -1.587077 -0.258150 0.294800 0.322050 0.251650 
0.881030 17.252390 -0.682410 -5.307258 -10.454715 14.376932 -15.471166 12.740116 3.531644 -6.341575 -2.706550 -14.316661 -5.802624 2.301464 -1.532418 -0.863010 4.402702 3.832288 0.225150 -0.587810 -0.071830 18.115203 -10.409405 2.673261 -3.755647 0.096145 -3.674877 7.785861 -5.847785 5.208623 -0.940101 -4.724437 2.628034 -0.318120 1.699260 1.799360 -2.817619 -2.045755 -7.369029 2.587605 3.671180 6.250818 3.398117 2.398641 4.603422 2.560197 0.669560 -9.198626 0.604191 5.486858 27.215725 -7.878560 5.461880 -5.631640 -13.998568 -8.154695 2.960659 -7.249792 -1.418282 -0.447690 12.851242 -30.790340 -3.829702 -4.632784 3.143855 0.935800 1.020690 0.197760 0.903430 9.986247 8.767156 5.622103 10.521556 4.597622 -4.272096 -14.594382 26.283955 -1.847760 1.577145 -1.584010 -0.250680 0.289100 0.321930 0.253150 
0.888070 17.252500 -0.682370 -5.448104 -10.798720 14.629475 -15.471918 12.720891 3.546096 -6.352970 -2.758481 -14.443646 -5.852513 2.258897 -1.858223 -0.854476 4.388372 3.833124 0.225860 -0.585200 -0.070950 18.114561 -10.412924 2.667657 -4.043529 0.036291 -3.097276 7.843396 -5.923196 5.215397 -0.959688 -4.787378 2.607828 -0.322600 1.691200 1.803080 -2.813517 -2.029723 -7.378200 2.585589 3.775993 6.194660 3.451178 2.488176 4.566353 2.585180 0.655997 -9.257226 0.581446 5.512260 27.339457 -7.907610 5.527140 -5.746070 -14.000522 -8.197771 3.005009 -7.305177 -1.313649 -0.481153 13.032751 -30.782175 -3.871309 -4.627823 3.146362 0.936790 1.015300 0.205560 0.901590 9.949336 8.857151 5.679038 10.547827 4.592148 -4.286277 -14.717279 26.167762 -1.857188 1.582816 -1.581316 -0.242290 0.282760 0.320980 0.254460 
